<?xml version="1.0" encoding="utf-8"?>
<!-- Generator: Adobe Illustrator 27.2.0, SVG Export Plug-In . SVG Version: 6.00 Build 0)  -->
<svg version="1.1" id="Слой_1" xmlns="http://www.w3.org/2000/svg" xmlns:xlink="http://www.w3.org/1999/xlink" x="0px" y="0px"
	 viewBox="0 0 199 198" style="enable-background:new 0 0 199 198;" xml:space="preserve">
<style type="text/css">
	.st0{fill:#FFFFFF;}
</style>
<path class="st0" d="M188.73,98.97l-65.03-2.37c9.4-9.12,18.62-18.44,27.63-27.93c5.9-6.86,39.58-41.61,33.7-48.8
	c-7.61-7.32-58.79,38.33-82.78,60.06L99.69,9.93l-2.42,66.4C78.3,57.07,44.52,25.05,36.54,30.57c-6.54,7.05,28.57,46.51,46,65.77
	l-71.87,2.62l68.22,2.49c-20.74,19.45-41.32,39.19-59.15,61.37c-2.38,3.34-11.81,14.96-2.97,15.68c9.36-1.72,17.03-8.22,24.9-13.13
	c19.38-13.66,37.86-28.52,55.6-44.23L99.69,188l2.56-70.29c18.55,19.7,51.78,53.86,58.9,48.21c6.13-7.54-23.15-44-40.75-64.46
	L188.73,98.97z M96.96,84.98l-0.28,7.63l-4.17-3.88c1.12-1,2.6-2.34,4.32-3.9C96.87,84.89,96.91,84.94,96.96,84.98z M106.61,95.34
	c0.2,0.21,0.39,0.43,0.59,0.65l-1.15-0.04L106.61,95.34z M93.35,95.95l-8.93,0.33c1.64-1.55,3.29-3.09,4.93-4.63L93.35,95.95z
	 M93.35,101.98l-2.91,3.13c-0.75-0.86-1.75-1.96-2.99-3.34L93.35,101.98z M96.68,105.31l0.24,6.7c-1.31-1.4-2.48-2.65-3.47-3.7
	L96.68,105.31z M102.71,105.31l1.29,1.2c-0.45,0.42-0.92,0.83-1.38,1.24L102.71,105.31z M102.65,91.05
	c0.27,0.29,0.55,0.58,0.81,0.87l-0.76,0.7L102.65,91.05z M106.04,101.98l2.95-0.11c-0.55,0.51-1.08,1.02-1.63,1.53L106.04,101.98z
	 M159.04,34.55c6.94-4.56,13.86-9.65,21.75-12.32c0.49-0.1,1.05-0.26,1.43-0.23c0.49-0.08,0.55,0.17,0.48,0.01
	c-0.71,3.5-3.8,7.55-6.12,10.67c-8.83,11.47-19.05,21.85-29.18,32.21c-10.41,10.52-21.11,20.77-31.92,30.9
	c-1.79-2.03-3.33-3.75-4.55-5.1l39.12-42.08L108.1,87.61c-1.39-1.5-3.37-3.59-5.79-6.11l-0.06-1.53
	C120.38,63.85,139.09,48.34,159.04,34.55z M47.71,51.57c-3.37-5.77-8.43-12.08-9.02-18.67c2.65,0.42,5.82,2.61,8.23,4.34
	c9.21,6.73,17.45,14.77,25.67,22.71c8.26,8.09,16.3,16.43,24.22,24.88c-1.44,1.3-2.88,2.6-4.32,3.9L49.35,48.62l40,43.03
	c-1.65,1.54-3.3,3.09-4.95,4.63l-1.81,0.07C70.06,82.13,58.1,67.4,47.71,51.57z M61.82,143.71C47.84,154.82,34.4,167.59,18.04,175
	c-0.96,0.39-2.13,0.24-1.88,0.36c0.15,0.08-0.09-0.01,0.03-0.49c0-0.38,0.2-0.92,0.34-1.41c3.31-7.64,8.95-14.12,14.07-20.66
	c14.93-18.18,31.38-35.06,48.37-51.34l8.44,0.31c1,1.12,2.01,2.24,3.02,3.35l-41.09,44.2l44.09-40.99c1.16,1.23,2.32,2.47,3.49,3.7
	l0.03,0.85C85.42,123.37,73.75,133.71,61.82,143.71z M155.38,155.02c1.53,2.57,3.42,5.85,3.65,8.58
	c-6.53-1.11-12.39-6.7-17.88-10.53c-13.84-10.82-26.63-22.91-38.89-35.5l0.04-0.97c2.12-1.91,4.23-3.84,6.34-5.78l41.41,38.49
	l-38.37-41.27c1.16-1.08,2.3-2.18,3.45-3.26c6.7,7.49,13.33,15.06,19.74,22.79C142.11,136.41,149.43,145.29,155.38,155.02z"/>
</svg>
